# xmcd
#
# Track frame offsets:
#	150
#	17860
#	35609
#	53249
#	69932
#	86894
#	106457
#	122364
#	139604
#	158651
#	173658
#	192072
#	210980
#	229624
#
# Disc length: 3333 seconds
#
# Revision: 0
# Processed by: cddbd v1.5.2PL0 Copyright (c) Steve Scherf et al.
# Submitted via: EasyCDDAExtractor 10.0.3.1
#
DISCID=ae0d030e
DTITLE=Lonestar - Mountains
DYEAR=2006
DGENRE=Country
TTITLE0=Mountains
TTITLE1=Nothing To Prove
TTITLE2=Long Lost Smile
TTITLE3=Thought It Was You
TTITLE4=Hey God
TTITLE5=I Wanna Do It For You
TTITLE6=Cowboy Girl
TTITLE7=What She Had To
TTITLE8=One Of Those Nights
TTITLE9=Careful Where You Kiss Me
TTITLE10=Always In The Band
TTITLE11=Don't Forget Me
TTITLE12=I Don't Know How To Do That
TTITLE13=She Can Make It Rain
EXTD=
EXTT0=
EXTT1=
EXTT2=
EXTT3=
EXTT4=
EXTT5=
EXTT6=
EXTT7=
EXTT8=
EXTT9=
EXTT10=
EXTT11=
EXTT12=
EXTT13=
PLAYORDER=
